<svg width="104" height="104" viewBox="0 0 104 104" version="1.1" xmlns="http://www.w3.org/2000/svg" xmlns:xlink="http://www.w3.org/1999/xlink">
<title>js</title>
<desc>Created using Figma</desc>
<g id="Canvas" transform="translate(-6270 -4012)">
<clipPath id="clip-0" clip-rule="evenodd">
<path d="M 6270 4012L 6374 4012L 6374 4116L 6270 4116L 6270 4012Z" fill="#FFFFFF"/>
</clipPath>
<g id="js" clip-path="url(#clip-0)">
<g id="Vector">
<use xlink:href="#path0_fill" transform="translate(6285 4038)" fill="#404040"/>
</g>
</g>
</g>
<defs>
<path id="path0_fill" d="M 45.8626 37.0905C 48.1243 40.8157 51.0669 43.5539 56.2713 43.5539C 60.6433 43.5539 63.4362 41.3497 63.4362 38.3041C 63.4362 34.6543 60.5667 33.3617 55.7544 31.2383L 53.1166 30.0967C 45.5025 26.8245 40.4443 22.7253 40.4443 14.0595C 40.4443 6.07687 46.4739 0 55.897 0C 62.6056 0 67.4286 2.35524 70.9041 8.522L 62.6876 13.8438C 60.8786 10.5716 58.9269 9.2825 55.897 9.2825C 52.8065 9.2825 50.8477 11.2602 50.8477 13.8438C 50.8477 17.0368 52.8083 18.3295 57.3353 20.3072L 59.9732 21.447C 68.9382 25.3251 74 29.2786 74 38.1674C 74 47.7502 66.5374 53 56.5155 53C 46.7163 53 40.3855 48.2895 37.2878 42.1156L 45.8626 37.0905ZM 8.58898 38.0128C 10.2465 40.9793 11.7544 43.4874 15.3796 43.4874C 18.8462 43.4874 21.0331 42.1192 21.0331 36.7992L 21.0331 0.607682L 31.5844 0.607682L 31.5844 36.943C 31.5844 47.9641 25.1788 52.9802 15.8288 52.9802C 7.38057 52.9802 2.48811 48.57 0 43.2581L 8.58898 38.0128Z"/>
</defs>
</svg>
