<svg width="104" height="104" viewBox="0 0 104 104" version="1.1" xmlns="http://www.w3.org/2000/svg" xmlns:xlink="http://www.w3.org/1999/xlink">
<title>nodejs</title>
<desc>Created using Figma</desc>
<g id="Canvas" transform="translate(-6558 -4012)">
<clipPath id="clip-0" clip-rule="evenodd">
<path d="M 6558 4012L 6662 4012L 6662 4116L 6558 4116L 6558 4012Z" fill="#FFFFFF"/>
</clipPath>
<g id="nodejs" clip-path="url(#clip-0)">
<g id="layer1">
<g id="path22">
<use xlink:href="#path0_fill" transform="translate(6558 4038)" fill="#404040"/>
</g>
<g id="path28">
<use xlink:href="#path1_fill" transform="translate(6585.8 4051.7)" fill="#6CAB39"/>
</g>
</g>
</g>
</g>
<defs>
<path id="path0_fill" fill-rule="evenodd" d="M 69.99 5.37019e-05C 69.894 0.00124849 69.7969 0.0246012 69.7112 0.0758215C 69.5402 0.178183 69.4324 0.366174 69.4324 0.568327L 69.4324 15.0593C 69.4324 15.2017 69.3674 15.3289 69.2466 15.4003C 69.1255 15.4719 68.9777 15.4719 68.8563 15.4003L 66.5332 14.0364C 66.1871 13.833 65.7644 13.8331 65.4182 14.0364L 56.1444 19.4919C 55.7977 19.6957 55.5868 20.0879 55.5868 20.4958L 55.5868 31.4066C 55.5868 31.8142 55.798 32.1874 56.1444 32.3916L 65.4182 37.8471C 65.7649 38.051 66.1865 38.051 66.5332 37.8471L 75.807 32.3916C 76.1534 32.1874 76.3645 31.8142 76.3645 31.4066L 76.3645 4.20529C 76.3645 3.7915 76.143 3.40318 75.7884 3.20133L 70.2688 0.0568832C 70.1821 0.00760318 70.086 -0.00100187 69.99 9.01639e-05L 69.99 5.37019e-05ZM 10.3331 13.6196C 10.1562 13.6269 9.99009 13.6584 9.83131 13.7523L 0.557541 19.2077C 0.211984 19.4113 -4.47595e-07 19.7822 -4.47595e-07 20.1927L 0.0185444 34.8352C 0.0185444 35.0389 0.121632 35.228 0.297317 35.3278C 0.469513 35.4328 0.683243 35.4328 0.854858 35.3278L 6.35593 32.1075C 6.7044 31.8965 6.93206 31.5294 6.93206 31.1225L 6.93206 24.2843C 6.93206 23.8764 7.14257 23.502 7.4896 23.2993L 9.83127 21.9165C 10.006 21.8135 10.1937 21.765 10.3888 21.765C 10.5799 21.765 10.7764 21.8134 10.9464 21.9165L 13.288 23.2993C 13.635 23.502 13.8456 23.8764 13.8456 24.2843L 13.8456 31.1225C 13.8456 31.5294 14.0755 31.8988 14.4217 32.1075L 19.9228 35.3278C 20.0955 35.4328 20.309 35.4328 20.4803 35.3278C 20.6511 35.228 20.7591 35.0389 20.7591 34.8352L 20.7776 20.1927C 20.7776 19.7822 20.568 19.4113 20.2201 19.2077L 10.9463 13.7523C 10.7895 13.6584 10.6226 13.627 10.4445 13.6196L 10.333 13.6196L 10.3331 13.6196ZM 93.6669 13.7523C 93.4732 13.752 93.2833 13.802 93.1094 13.9038L 83.8356 19.3592C 83.4892 19.5631 83.2781 19.9364 83.2781 20.3442L 83.2781 31.2551C 83.2781 31.6653 83.5048 32.0373 83.8542 32.2401L 93.0536 37.5819C 93.3933 37.7796 93.8081 37.7944 94.1501 37.6007L 99.7255 34.4372C 99.9024 34.3372 100.022 34.1504 100.023 33.9447C 100.024 33.739 99.9188 33.5546 99.7441 33.4522L 90.4146 27.9968C 90.2399 27.8953 90.1172 27.6895 90.1172 27.4853L 90.1172 24.0757C 90.1172 23.8718 90.2414 23.685 90.4146 23.5832L 93.3138 21.8784C 93.4863 21.7766 93.6981 21.7766 93.8713 21.8784L 96.7706 23.5832C 96.9438 23.685 97.0493 23.8718 97.0493 24.0757L 97.0493 26.7656C 97.0493 26.9697 97.1549 27.1562 97.3281 27.258C 97.502 27.3601 97.7124 27.3605 97.8856 27.258L 103.442 23.9621C 103.787 23.7579 104 23.3837 104 22.9771L 104 20.3441C 104 19.9374 103.788 19.5633 103.442 19.359L 94.2244 13.9036C 94.0509 13.8011 93.8607 13.7523 93.6669 13.7521L 93.6669 13.7523ZM 65.9385 21.8975C 65.9869 21.8975 66.0438 21.9096 66.0872 21.9351L 69.2652 23.8104C 69.3514 23.8614 69.4139 23.9551 69.4139 24.0567L 69.4139 27.8073C 69.4139 27.9091 69.352 28.0029 69.2652 28.0535L 66.0872 29.9288C 66.0007 29.9791 65.895 29.9791 65.8084 29.9288L 62.6304 28.0535C 62.5439 28.0026 62.4818 27.9091 62.4818 27.8073L 62.4818 24.0567C 62.4818 23.9551 62.5442 23.8616 62.6304 23.8104L 65.8084 21.9354C 65.8518 21.91 65.8902 21.8978 65.9385 21.8978L 65.9385 21.8975Z"/>
<path id="path1_fill" fill-rule="evenodd" d="M 10.3888 0C 10.1956 0 10.0044 0.0497019 9.83131 0.151536L 0.557545 5.58805C 0.210828 5.79172 0 6.18446 0 6.59198L 0 17.5028C 0 17.9108 0.211053 18.2837 0.557545 18.4878L 9.83131 23.9432C 10.178 24.1473 10.5997 24.1473 10.9464 23.9432L 20.2202 18.4878C 20.5663 18.2837 20.7777 17.9108 20.7777 17.5028L 20.7777 6.59198C 20.7777 6.18385 20.5669 5.79172 20.2202 5.58805L 10.9464 0.151536C 10.7733 0.0497019 10.5821 0 10.3888 0ZM 65.8456 9.7366C 65.8086 9.7366 65.7676 9.7366 65.7341 9.75538L 63.95 10.8162C 63.8831 10.855 63.8385 10.9272 63.8385 11.0056L 63.8385 13.0893C 63.8385 13.1677 63.8831 13.2396 63.95 13.2787L 65.7341 14.3205C 65.801 14.3599 65.8724 14.3599 65.9385 14.3205L 67.7227 13.2787C 67.7888 13.2399 67.8342 13.1677 67.8342 13.0893L 67.8342 11.0056C 67.8342 10.9272 67.7889 10.8552 67.7227 10.8162L 65.9385 9.75538C 65.9055 9.73538 65.8827 9.7366 65.8456 9.7366Z"/>
</defs>
</svg>
