<svg width="104" height="104" viewBox="0 0 104 104" version="1.1" xmlns="http://www.w3.org/2000/svg" xmlns:xlink="http://www.w3.org/1999/xlink">
<title>react</title>
<desc>Created using Figma</desc>
<g id="Canvas" transform="translate(-6702 -4012)">
<clipPath id="clip-0" clip-rule="evenodd">
<path d="M 6702 4012L 6806 4012L 6806 4116L 6702 4116L 6702 4012Z" fill="#FFFFFF"/>
</clipPath>
<g id="react" clip-path="url(#clip-0)">
<g id="react">
<g id="Union">
<use xlink:href="#path0_fill" transform="translate(6721 4034)" fill="#44A6B9"/>
</g>
</g>
</g>
</g>
<defs>
<path id="path0_fill" fill-rule="evenodd" d="M 54.4863 19.447C 53.7812 19.2009 53.0698 18.9729 52.353 18.7629C 52.4722 18.2715 52.582 17.7781 52.6826 17.2822C 54.2974 9.30541 53.2417 2.87914 49.6362 0.763657C 46.1792 -1.2654 40.5254 0.850327 34.8149 5.90672C 34.2524 6.40624 33.7021 6.91991 33.165 7.44774C 32.8057 7.09691 32.4395 6.75267 32.0669 6.41576C 26.0825 1.00829 20.0845 -1.27003 16.4824 0.851548C 13.0288 2.88622 12.0059 8.92772 13.4595 16.4875C 13.604 17.2363 13.7676 17.9809 13.9492 18.7212C 13.1006 18.9665 12.2808 19.228 11.4966 19.5061C 4.48096 21.9953 0 25.8967 0 29.9429C 0 34.1225 4.80957 38.3147 12.1177 40.8562C 12.7104 41.0615 13.3081 41.2515 13.9097 41.4263C 13.7144 42.2236 13.5405 43.0266 13.3892 43.834C 12.0029 51.2624 13.0854 57.1606 16.5303 59.1826C 20.0879 61.2705 26.0591 59.1245 31.874 53.9524C 32.3335 53.5434 32.7949 53.1098 33.2568 52.6553C 33.8384 53.2265 34.436 53.7812 35.0479 54.3186C 40.6802 59.2505 46.2427 61.2422 49.6841 59.2148C 53.2388 57.1208 54.3936 50.7844 52.894 43.0749C 52.7798 42.4861 52.646 41.8848 52.4966 41.2722C 52.916 41.1465 53.3276 41.0161 53.729 40.8808C 61.3262 38.3193 66.2686 34.1785 66.2686 29.9429C 66.2686 25.8818 61.6436 21.9543 54.4863 19.447ZM 52.8384 38.1465C 52.4761 38.2683 52.1045 38.3862 51.7256 38.5007C 50.8867 35.7988 49.7549 32.9255 48.3696 29.9575C 49.6914 27.0593 50.7798 24.2231 51.5952 21.5386C 52.2729 21.7385 52.9307 21.949 53.5649 22.1714C 59.6973 24.3193 63.438 27.4956 63.438 29.9431C 63.438 32.55 59.3979 35.9346 52.8384 38.1465ZM 50.1167 43.6345C 50.7798 47.0434 50.8745 50.1257 50.4355 52.5351C 50.0405 54.7002 49.2471 56.1433 48.2656 56.7214C 46.1772 57.9516 41.7109 56.3525 36.8945 52.1348C 36.3423 51.6514 35.7861 51.135 35.228 50.5889C 37.0952 48.5105 38.9614 46.0942 40.7827 43.4111C 43.9868 43.1218 47.0132 42.6487 49.7583 42.0032C 49.8931 42.5583 50.0132 43.1025 50.1167 43.6345ZM 22.5923 56.509C 20.5522 57.2422 18.9268 57.2632 17.9448 56.6868C 15.854 55.4602 14.9854 50.7236 16.1709 44.3713C 16.3115 43.6203 16.4731 42.8738 16.6548 42.1321C 19.3691 42.7431 22.3735 43.1828 25.585 43.4477C 27.4185 46.0732 29.3384 48.4866 31.2734 50.5998C 30.8623 51.0046 30.4414 51.3992 30.0107 51.7829C 27.4399 54.0703 24.8633 55.6926 22.5923 56.509ZM 13.0332 38.1304C 9.80225 37.0063 7.1333 35.5456 5.3042 33.9519C 3.66064 32.5193 2.83057 31.0972 2.83057 29.9431C 2.83057 27.4878 6.42822 24.3555 12.4287 22.2265C 13.1816 21.9607 13.9424 21.717 14.7095 21.4963C 15.5391 24.241 16.627 27.1111 17.9395 30.0132C 16.6099 32.9587 15.5063 35.8743 14.6694 38.6514C 14.1201 38.4912 13.5747 38.3176 13.0332 38.1304ZM 16.2378 15.9343C 14.9922 9.45702 15.8193 4.57103 17.9009 3.34496C 20.1182 2.03905 25.02 3.90135 30.187 8.57005C 30.5176 8.86839 30.8491 9.18089 31.1816 9.50414C 29.2563 11.6079 27.354 14.0029 25.5361 16.6133C 22.4194 16.9072 19.436 17.3794 16.6934 18.0119C 16.5244 17.3232 16.3726 16.6304 16.2378 15.9343ZM 44.8232 23.1172C 44.1753 21.9783 43.5034 20.854 42.8081 19.7446C 44.9224 20.0163 46.9482 20.3774 48.8506 20.8193C 48.2793 22.6819 47.5679 24.6296 46.7295 26.6262C 46.1172 25.4438 45.4814 24.2739 44.8232 23.1172ZM 33.166 11.5627C 34.4717 13.0024 35.7793 14.6098 37.0659 16.3537C 34.4565 16.2283 31.8428 16.2275 29.2334 16.3518C 30.521 14.624 31.8398 13.019 33.166 11.5627ZM 21.4341 23.1369C 20.7842 24.2844 20.1606 25.447 19.5635 26.6243C 18.7393 24.6345 18.0337 22.6782 17.458 20.789C 19.3486 20.3581 21.3647 20.0063 23.4658 19.7392C 22.7627 20.8555 22.085 21.9883 21.4341 23.1369ZM 23.5264 40.3525C 21.356 40.1059 19.3091 39.772 17.4189 39.3533C 18.0039 37.4306 18.7251 35.4321 19.5669 33.3996C 20.166 34.5776 20.7925 35.7412 21.4458 36.8894C 22.1118 38.0603 22.8057 39.2151 23.5264 40.3525ZM 33.2441 48.5268C 31.9028 47.0532 30.5645 45.4238 29.2573 43.6711C 30.5259 43.7217 31.8198 43.7473 33.1343 43.7473C 34.4854 43.7473 35.8203 43.7168 37.1348 43.657C 35.8442 45.4416 34.541 47.0737 33.2441 48.5268ZM 46.7563 33.2961C 47.6421 35.3506 48.3887 37.3384 48.9819 39.2285C 47.0601 39.6748 44.9858 40.0342 42.8003 40.301C 43.5005 39.1709 44.1787 38.0266 44.8345 36.8694C 45.501 35.6929 46.1421 34.5015 46.7563 33.2961ZM 42.3823 35.4302C 41.3784 37.2046 40.3179 38.9455 39.2031 40.6501C 37.2368 40.793 35.2051 40.8667 33.1343 40.8667C 31.0723 40.8667 29.0664 40.8013 27.1343 40.6741C 25.9902 38.9734 24.9102 37.2295 23.8955 35.446C 22.8862 33.6719 21.9429 31.8594 21.0684 30.0122C 21.9409 28.1648 22.8809 26.3513 23.8872 24.5762C 24.8931 22.8003 25.9648 21.064 27.1006 19.3706C 29.0713 19.2192 31.0918 19.1396 33.1348 19.1396C 35.1865 19.1396 37.21 19.2197 39.1802 19.3725C 40.3042 21.063 41.3691 22.7934 42.373 24.5603C 43.3828 26.332 44.3354 28.1367 45.23 29.9714C 44.3447 31.8249 43.395 33.6455 42.3823 35.4302ZM 48.2222 3.25926C 50.4414 4.56175 51.3042 9.81371 49.9102 16.7012C 49.8188 17.1496 49.7192 17.5967 49.6123 18.0417C 46.8628 17.396 43.8774 16.9155 40.7515 16.6172C 38.9307 13.9785 37.0439 11.5793 35.1499 9.50267C 35.646 9.01561 36.1543 8.54149 36.6738 8.08031C 41.5664 3.7473 46.1387 2.03661 48.2222 3.25926ZM 39.0518 29.9431C 39.0518 26.6174 36.4028 23.9211 33.1343 23.9211C 29.8662 23.9211 27.2168 26.6174 27.2168 29.9431C 27.2168 33.269 29.8662 35.9651 33.1343 35.9651C 36.4028 35.9651 39.0518 33.269 39.0518 29.9431Z"/>
</defs>
</svg>
